<?xml version="1.0" encoding="UTF-8"?><svg id="a" xmlns="http://www.w3.org/2000/svg" viewBox="0 0 67.91 56.4"><defs><style>.b{fill:#ffef00;}</style></defs><g><path class="b" d="M46.61,3.39V0h5.91V15.59h-3.8V3.39h-2.11Z"/><path class="b" d="M55.1,12.81v-2.95L61.85,.21h4.08V9.65h1.75v3.16h-1.75v2.78h-3.65v-2.78h-7.17Zm7.43-8.58l-3.59,5.42h3.59V4.23Z"/></g><g><path class="b" d="M14.03,20.93l-5.19,10.03v4.95h-3.65v-4.95L0,20.93H4.14l2.9,6.28,2.88-6.28h4.1Z"/><path class="b" d="M19.15,23.86v3.03h4.89v2.82h-4.89v3.29h5.53v2.92H15.5v-14.99h9.18v2.92h-5.53Z"/><path class="b" d="M36.38,33.27h-5.59l-.9,2.65h-3.82l5.42-14.99h4.23l5.42,14.99h-3.86l-.9-2.65Zm-.94-2.82l-1.86-5.49-1.84,5.49h3.69Z"/><path class="b" d="M50.43,35.92l-3.12-5.66h-.88v5.66h-3.65v-14.99h6.13c1.18,0,2.19,.21,3.02,.62,.83,.41,1.46,.98,1.87,1.7,.41,.72,.62,1.52,.62,2.4,0,1-.28,1.89-.84,2.67-.56,.78-1.39,1.34-2.49,1.67l3.46,5.94h-4.12Zm-3.99-8.24h2.26c.67,0,1.17-.16,1.51-.49,.33-.33,.5-.79,.5-1.39s-.17-1.02-.5-1.34c-.33-.33-.84-.49-1.51-.49h-2.26v3.71Z"/><path class="b" d="M59.18,35.53c-.87-.36-1.56-.88-2.08-1.58-.52-.7-.79-1.54-.82-2.52h3.89c.06,.56,.25,.98,.58,1.27,.33,.29,.75,.44,1.28,.44s.97-.12,1.28-.37c.31-.25,.47-.59,.47-1.04,0-.37-.12-.68-.37-.92-.25-.24-.56-.44-.92-.6-.36-.16-.88-.33-1.55-.53-.97-.3-1.76-.6-2.37-.9s-1.14-.74-1.58-1.32c-.44-.58-.66-1.35-.66-2.28,0-1.39,.51-2.49,1.52-3.28,1.01-.79,2.33-1.18,3.95-1.18s2.98,.4,3.99,1.18c1.01,.79,1.55,1.89,1.62,3.3h-3.95c-.03-.48-.21-.86-.53-1.14-.33-.28-.75-.42-1.26-.42-.44,0-.8,.12-1.07,.35-.27,.23-.41,.57-.41,1.01,0,.48,.23,.86,.68,1.13,.46,.27,1.17,.56,2.14,.88,.97,.33,1.75,.64,2.36,.94s1.13,.73,1.57,1.3,.66,1.3,.66,2.2-.22,1.63-.65,2.33c-.43,.7-1.06,1.25-1.89,1.67s-1.8,.62-2.92,.62-2.08-.18-2.95-.53Z"/></g><g><path class="b" d="M44.59,55.42c-1.17-.65-2.11-1.57-2.8-2.74s-1.04-2.49-1.04-3.96,.35-2.78,1.04-3.95c.69-1.17,1.62-2.08,2.8-2.73,1.17-.66,2.47-.98,3.87-.98s2.7,.33,3.87,.98c1.17,.65,2.1,1.57,2.78,2.73,.68,1.17,1.01,2.48,1.01,3.95s-.34,2.79-1.02,3.96c-.68,1.17-1.61,2.09-2.78,2.74-1.17,.66-2.46,.98-3.86,.98s-2.7-.33-3.87-.98Zm6.75-3.54c.72-.8,1.08-1.85,1.08-3.16s-.36-2.38-1.08-3.17c-.72-.79-1.68-1.18-2.87-1.18s-2.17,.39-2.89,1.17c-.72,.78-1.08,1.84-1.08,3.18s.36,2.38,1.08,3.17c.72,.79,1.68,1.19,2.89,1.19s2.15-.4,2.87-1.2Z"/><path class="b" d="M67.91,41.26v2.92h-6.11v3.16h4.57v2.84h-4.57v6.06h-3.65v-14.99h9.76Z"/></g></svg>