<?xml version="1.0" encoding="UTF-8"?><svg id="a" xmlns="http://www.w3.org/2000/svg" viewBox="0 0 1800 200"><defs><style>.b{fill:#ffef00;}</style></defs><path class="b" d="M134.96,92.59c-4.95,9.14-12.69,16.5-23.22,22.09-10.54,5.6-23.82,8.4-39.86,8.4H39.15v74.96H0V2.8H71.89c15.1,0,27.96,2.62,38.6,7.83,10.63,5.22,18.61,12.41,23.92,21.53,5.3,9.14,7.97,19.5,7.97,31.05,0,10.45-2.47,20.24-7.41,29.38Zm-40.7-8.54c5.21-4.94,7.83-11.88,7.83-20.84,0-19.02-10.63-28.52-31.89-28.52h-31.05v56.78h31.05c10.81,0,18.84-2.47,24.06-7.42Z"/><path class="b" d="M210.35,187.14c-15.3-8.58-27.42-20.46-36.36-35.67-8.96-15.19-13.43-32.39-13.43-51.6s4.47-36.13,13.43-51.33c8.95-15.19,21.07-27.09,36.36-35.66C225.63,4.29,242.41,0,260.69,0s35.29,4.29,50.49,12.87c15.21,8.57,27.23,20.46,36.09,35.66,8.85,15.21,13.28,32.31,13.28,51.33s-4.43,36.41-13.28,51.6c-8.87,15.21-20.94,27.09-36.23,35.67-15.3,8.57-32.07,12.86-50.35,12.86s-35.06-4.29-50.34-12.86Zm81.39-30.07c8.96-5.32,15.95-12.92,20.99-22.8,5.03-9.89,7.55-21.35,7.55-34.41s-2.52-24.48-7.55-34.27c-5.04-9.79-12.03-17.29-20.99-22.51-8.95-5.22-19.29-7.83-31.05-7.83s-22.14,2.61-31.19,7.83c-9.05,5.22-16.08,12.72-21.11,22.51-5.04,9.79-7.56,21.22-7.56,34.27s2.52,24.52,7.56,34.41c5.03,9.88,12.06,17.48,21.11,22.8s19.44,7.97,31.19,7.97,22.1-2.65,31.05-7.97Z"/><path class="b" d="M420.27,193.01c-10.92-4.67-19.54-11.38-25.87-20.15-6.35-8.76-9.61-19.11-9.8-31.05h41.96c.56,8.02,3.4,14.36,8.52,19.02,5.13,4.67,12.17,7,21.12,7s16.31-2.2,21.53-6.58c5.22-4.38,7.83-10.11,7.83-17.2,0-5.78-1.78-10.54-5.32-14.27-3.54-3.72-7.97-6.66-13.28-8.81-5.32-2.14-12.63-4.52-21.96-7.12-12.69-3.73-22.99-7.42-30.91-11.05-7.92-3.64-14.73-9.14-20.42-16.5s-8.52-17.21-8.52-29.51c0-11.56,2.88-21.63,8.66-30.21,5.78-8.57,13.9-15.15,24.33-19.72,10.45-4.56,22.39-6.85,35.81-6.85,20.15,0,36.5,4.89,49.09,14.68,12.59,9.8,19.53,23.46,20.84,40.99h-43.07c-.39-6.72-3.22-12.26-8.54-16.64s-12.36-6.58-21.12-6.58c-7.65,0-13.75,1.96-18.31,5.87-4.58,3.92-6.85,9.61-6.85,17.06,0,5.22,1.72,9.56,5.17,13.01s7.74,6.25,12.87,8.39c5.12,2.15,12.35,4.62,21.67,7.42,12.68,3.73,23.04,7.46,31.05,11.19,8.02,3.73,14.92,9.32,20.7,16.78,5.78,7.47,8.67,17.25,8.67,29.38,0,10.44-2.71,20.13-8.12,29.09-5.41,8.95-13.33,16.08-23.78,21.4-10.45,5.32-22.84,7.97-37.2,7.97s-25.88-2.33-36.79-6.99Z"/><path class="b" d="M590.61,193.01c-10.92-4.67-19.54-11.38-25.87-20.15-6.35-8.76-9.61-19.11-9.8-31.05h41.96c.56,8.02,3.4,14.36,8.52,19.02,5.13,4.67,12.17,7,21.12,7s16.31-2.2,21.53-6.58c5.22-4.38,7.83-10.11,7.83-17.2,0-5.78-1.78-10.54-5.32-14.27-3.54-3.72-7.97-6.66-13.28-8.81-5.32-2.14-12.63-4.52-21.96-7.12-12.69-3.73-22.99-7.42-30.91-11.05-7.92-3.64-14.73-9.14-20.42-16.5-5.69-7.36-8.52-17.21-8.52-29.51,0-11.56,2.88-21.63,8.66-30.21,5.78-8.57,13.9-15.15,24.33-19.72,10.45-4.56,22.39-6.85,35.81-6.85,20.15,0,36.5,4.89,49.09,14.68,12.59,9.8,19.53,23.46,20.84,40.99h-43.07c-.39-6.72-3.22-12.26-8.54-16.64s-12.36-6.58-21.12-6.58c-7.65,0-13.75,1.96-18.31,5.87-4.58,3.92-6.85,9.61-6.85,17.06,0,5.22,1.72,9.56,5.17,13.01s7.74,6.25,12.87,8.39c5.12,2.15,12.35,4.62,21.67,7.42,12.68,3.73,23.04,7.46,31.05,11.19,8.02,3.73,14.92,9.32,20.7,16.78,5.78,7.47,8.67,17.25,8.67,29.38,0,10.44-2.71,20.13-8.12,29.09-5.41,8.95-13.33,16.08-23.78,21.4-10.45,5.32-22.84,7.97-37.2,7.97s-25.88-2.33-36.79-6.99Z"/><path class="b" d="M769.49,2.8V198.04h-39.15V2.8h39.15Z"/><path class="b" d="M945.99,114.41c7.08,8.95,10.63,19.2,10.63,30.76,0,10.45-2.57,19.63-7.69,27.56-5.13,7.92-12.54,14.12-22.24,18.6-9.7,4.47-21.17,6.72-34.41,6.72h-84.19V2.8h80.56c13.24,0,24.65,2.14,34.26,6.43s16.88,10.25,21.82,17.9c4.94,7.65,7.41,16.32,7.41,26.02,0,11.37-3.03,20.89-9.08,28.52-6.07,7.65-14.12,13.05-24.2,16.23,10.99,2.05,20.04,7.55,27.13,16.5Zm-98.75-31.05h35.81c9.32,0,16.5-2.09,21.53-6.29,5.04-4.2,7.56-10.21,7.56-18.04s-2.52-13.9-7.56-18.19c-5.03-4.28-12.21-6.43-21.53-6.43h-35.81v48.95Zm61.68,76.09c5.32-4.48,7.98-10.82,7.98-19.03s-2.8-14.96-8.39-19.71c-5.6-4.76-13.16-7.14-22.66-7.14h-38.61v52.58h39.45c9.5,0,16.91-2.23,22.23-6.7Z"/><path class="b" d="M1027.1,2.8V198.04h-39.15V2.8h39.15Z"/><path class="b" d="M1104.86,166.99h64.34v31.05h-103.49V2.8h39.15V166.99Z"/><path class="b" d="M1233.26,2.8V198.04h-39.15V2.8h39.15Z"/><path class="b" d="M1404.72,2.8v31.61h-52.03V198.04h-39.15V34.41h-52.04V2.8h143.22Z"/><path class="b" d="M1472.41,2.8V198.04h-39.15V2.8h39.15Z"/><path class="b" d="M1550.17,34.41v48.95h65.74v31.05h-65.74v51.74h74.13v31.89h-113.28V2.52h113.28v31.89h-74.13Z"/><path class="b" d="M1690.46,193.01c-10.92-4.67-19.54-11.38-25.87-20.15-6.35-8.76-9.61-19.11-9.8-31.05h41.96c.56,8.02,3.4,14.36,8.52,19.02,5.13,4.67,12.17,7,21.12,7s16.31-2.2,21.53-6.58c5.22-4.38,7.83-10.11,7.83-17.2,0-5.78-1.78-10.54-5.32-14.27-3.54-3.72-7.97-6.66-13.28-8.81-5.32-2.14-12.63-4.52-21.96-7.12-12.69-3.73-22.99-7.42-30.91-11.05-7.92-3.64-14.73-9.14-20.42-16.5-5.69-7.36-8.52-17.21-8.52-29.51,0-11.56,2.88-21.63,8.66-30.21,5.78-8.57,13.9-15.15,24.33-19.72,10.45-4.56,22.39-6.85,35.81-6.85,20.15,0,36.5,4.89,49.09,14.68,12.59,9.8,19.53,23.46,20.84,40.99h-43.07c-.39-6.72-3.22-12.26-8.54-16.64-5.32-4.38-12.36-6.58-21.12-6.58-7.65,0-13.75,1.96-18.31,5.87-4.58,3.92-6.85,9.61-6.85,17.06,0,5.22,1.72,9.56,5.17,13.01,3.45,3.45,7.74,6.25,12.87,8.39,5.12,2.15,12.35,4.62,21.67,7.42,12.68,3.73,23.04,7.46,31.05,11.19,8.02,3.73,14.92,9.32,20.7,16.78,5.78,7.47,8.67,17.25,8.67,29.38,0,10.44-2.71,20.13-8.12,29.09-5.41,8.95-13.33,16.08-23.78,21.4-10.45,5.32-22.84,7.97-37.2,7.97s-25.88-2.33-36.79-6.99Z"/></svg>