<svg id="Layer_1" data-name="Layer 1" xmlns="http://www.w3.org/2000/svg" viewBox="0 0 1080 120.24"><defs><style>.cls-1{fill:#ffef00;}</style></defs><path class="cls-1" d="M81.14,55.67A32.72,32.72,0,0,1,67.19,69q-9.51,5-24,5H23.54v45.07H0V1.68H43.22q13.62,0,23.21,4.71a32.86,32.86,0,0,1,14.38,13A36.49,36.49,0,0,1,85.6,38,36.59,36.59,0,0,1,81.14,55.67ZM56.67,50.54Q61.38,46.09,61.38,38q0-17.16-19.17-17.16H23.54V55H42.21Q52,55,56.67,50.54Z"/><path class="cls-1" d="M126.46,112.51A57.83,57.83,0,0,1,104.6,91.07a60,60,0,0,1-8.07-31,59.67,59.67,0,0,1,8.07-30.86A57.69,57.69,0,0,1,126.46,7.74a63.24,63.24,0,0,1,60.63,0,57.27,57.27,0,0,1,21.7,21.44,60.19,60.19,0,0,1,8,30.86,60.53,60.53,0,0,1-8,31A57.27,57.27,0,0,1,187,112.51a63.15,63.15,0,0,1-60.55,0ZM175.4,94.43A32.89,32.89,0,0,0,188,80.72,45,45,0,0,0,192.56,60,44.52,44.52,0,0,0,188,39.44,32.44,32.44,0,0,0,175.4,25.9a36.34,36.34,0,0,0-18.66-4.71A36.84,36.84,0,0,0,138,25.9a32.16,32.16,0,0,0-12.69,13.54A44.39,44.39,0,0,0,120.75,60a44.9,44.9,0,0,0,4.54,20.68A32.6,32.6,0,0,0,138,94.43a36.39,36.39,0,0,0,18.76,4.79A35.89,35.89,0,0,0,175.4,94.43Z"/><path class="cls-1" d="M252.68,116a36.28,36.28,0,0,1-15.56-12.11,31.88,31.88,0,0,1-5.89-18.67h25.23c.34,4.83,2,8.64,5.13,11.44s7.31,4.2,12.7,4.2,9.81-1.31,12.95-4a12.86,12.86,0,0,0,4.7-10.34A12,12,0,0,0,288.75,78a22.38,22.38,0,0,0-8-5.29,132,132,0,0,0-13.2-4.29A139.76,139.76,0,0,1,249,61.8a32.44,32.44,0,0,1-12.28-9.92q-5.13-6.65-5.13-17.74A31.74,31.74,0,0,1,236.78,16,33.18,33.18,0,0,1,251.41,4.12,53.21,53.21,0,0,1,272.94,0q18.17,0,29.52,8.83T315,33.47H289.09a13.5,13.5,0,0,0-5.13-10q-4.8-3.95-12.7-3.95-6.9,0-11,3.53c-2.74,2.35-4.12,5.78-4.12,10.26a10.61,10.61,0,0,0,3.11,7.82,23.75,23.75,0,0,0,7.74,5q4.62,1.94,13,4.46a136.58,136.58,0,0,1,18.67,6.73,33.51,33.51,0,0,1,12.45,10.09q5.2,6.72,5.21,17.66a33.25,33.25,0,0,1-4.88,17.49,34.36,34.36,0,0,1-14.29,12.86q-9.42,4.8-22.37,4.79A55.77,55.77,0,0,1,252.68,116Z"/><path class="cls-1" d="M355.09,116a36.25,36.25,0,0,1-15.55-12.11,31.81,31.81,0,0,1-5.89-18.67h25.23q.5,7.24,5.13,11.44t12.69,4.2q8.25,0,12.95-4a12.84,12.84,0,0,0,4.71-10.34A12,12,0,0,0,391.17,78a22.46,22.46,0,0,0-8-5.29A132.92,132.92,0,0,0,370,68.45a140.49,140.49,0,0,1-18.59-6.65,32.41,32.41,0,0,1-12.27-9.92Q334,45.24,334,34.14A31.66,31.66,0,0,1,339.2,16,33.13,33.13,0,0,1,353.83,4.12,53.21,53.21,0,0,1,375.36,0q18.17,0,29.51,8.83T417.4,33.47H391.5a13.43,13.43,0,0,0-5.13-10c-3.19-2.63-7.43-3.95-12.69-3.95q-6.9,0-11,3.53c-2.75,2.35-4.12,5.78-4.12,10.26a10.61,10.61,0,0,0,3.11,7.82,23.64,23.64,0,0,0,7.74,5q4.62,1.94,13,4.46a137.08,137.08,0,0,1,18.67,6.73,33.4,33.4,0,0,1,12.44,10.09q5.22,6.72,5.22,17.66a33.25,33.25,0,0,1-4.88,17.49,34.39,34.39,0,0,1-14.3,12.86q-9.42,4.8-22.36,4.79A55.82,55.82,0,0,1,355.09,116Z"/><path class="cls-1" d="M462.64,1.68V119.07H439.09V1.68Z"/><path class="cls-1" d="M568.76,68.78a29,29,0,0,1,6.39,18.5,29.87,29.87,0,0,1-4.63,16.57A30.8,30.8,0,0,1,557.15,115q-8.74,4-20.68,4H485.85V1.68h48.43q11.94,0,20.6,3.87A29.4,29.4,0,0,1,568,16.31,28.2,28.2,0,0,1,572.46,32q0,10.26-5.47,17.16a29.14,29.14,0,0,1-14.55,9.75A26.44,26.44,0,0,1,568.76,68.78ZM509.39,50.12h21.53q8.4,0,13-3.79t4.54-10.85q0-7-4.54-10.93t-13-3.86H509.39Zm37.08,45.74q4.8-4,4.8-11.44,0-7.56-5-11.85T532.6,68.28H509.39V99.9H533.1Q541.68,99.9,546.47,95.86Z"/><path class="cls-1" d="M617.52,1.68V119.07H594V1.68Z"/><path class="cls-1" d="M664.28,100.4H703v18.67H640.73V1.68h23.55Z"/><path class="cls-1" d="M741.47,1.68V119.07H717.92V1.68Z"/><path class="cls-1" d="M844.56,1.68v19H813.28v98.38H789.73V20.69H758.45v-19Z"/><path class="cls-1" d="M885.25,1.68V119.07H861.71V1.68Z"/><path class="cls-1" d="M932,20.69V50.12h39.52V68.78H932V99.9h44.56v19.17H908.46V1.51h68.11V20.69Z"/><path class="cls-1" d="M1016.35,116a36.28,36.28,0,0,1-15.56-12.11,31.88,31.88,0,0,1-5.89-18.67h25.23c.34,4.83,2,8.64,5.13,11.44s7.31,4.2,12.7,4.2,9.81-1.31,13-4a12.86,12.86,0,0,0,4.7-10.34,12,12,0,0,0-3.19-8.58,22.38,22.38,0,0,0-8-5.29,132,132,0,0,0-13.2-4.29,139.76,139.76,0,0,1-18.58-6.65,32.44,32.44,0,0,1-12.28-9.92q-5.13-6.65-5.13-17.74A31.74,31.74,0,0,1,1000.45,16a33.18,33.18,0,0,1,14.63-11.86A53.21,53.21,0,0,1,1036.61,0q18.17,0,29.52,8.83t12.52,24.64h-25.89a13.5,13.5,0,0,0-5.13-10q-4.8-3.95-12.7-3.95-6.9,0-11,3.53c-2.74,2.35-4.12,5.78-4.12,10.26a10.58,10.58,0,0,0,3.12,7.82,23.59,23.59,0,0,0,7.73,5q4.62,1.94,13,4.46a136.58,136.58,0,0,1,18.67,6.73,33.51,33.51,0,0,1,12.45,10.09q5.2,6.72,5.21,17.66a33.25,33.25,0,0,1-4.88,17.49,34.36,34.36,0,0,1-14.29,12.86q-9.42,4.8-22.37,4.79A55.8,55.8,0,0,1,1016.35,116Z"/></svg>