<?xml version="1.0" encoding="UTF-8"?><svg id="a" xmlns="http://www.w3.org/2000/svg" viewBox="0 0 1920 661.47"><defs><style>.b{fill:#ffef00;}</style></defs><path class="b" d="M284.28,408.47c69.92-79.72,104.88-155.78,104.88-228.16,0-47.84-12.88-87.08-38.64-117.76-25.76-30.66-68.08-46-126.96-46s-105.04,17.94-136.62,53.82c-31.6,35.88-49.54,83.26-53.82,142.14H14.72c4.9-66.24,25.6-118.22,62.1-155.94C113.3,18.86,162.22,0,223.56,0c52.12,0,95.82,14.42,131.1,43.24,35.26,28.84,52.9,74.52,52.9,137.08,0,54.6-19.32,111.02-57.96,169.28-38.64,58.27-86.48,112.4-143.52,162.38-57.04,50-114.08,91.85-171.12,125.58H429.63v16.56H0v-10.12c119.6-77.28,214.36-155.78,284.28-235.52Z"/><path class="b" d="M510.58,153.64c11.04-47.22,31.58-84.64,61.64-112.24C602.26,13.8,644.9,0,700.1,0s97.06,13.8,127.42,41.4,51.06,65.18,62.1,112.7c11.04,47.54,16.56,105.65,16.56,174.34s-5.52,128.8-16.56,176.64c-11.04,47.84-31.74,85.72-62.1,113.62-30.36,27.92-72.84,41.86-127.42,41.86s-97.84-13.94-127.88-41.86c-30.06-27.9-50.6-65.78-61.64-113.62-11.04-47.84-16.56-106.72-16.56-176.64s5.52-127.56,16.56-174.8Zm362.48,8.28c-9.82-44.76-28.38-80.18-55.66-106.26-27.3-26.06-66.4-39.1-117.3-39.1s-90.01,13.04-117.3,39.1c-27.3,26.08-45.86,61.5-55.66,106.26-9.82,44.78-14.72,100.28-14.72,166.52s4.9,122.98,14.72,168.36c9.8,45.4,28.36,81.28,55.66,107.64,27.28,26.38,66.38,39.56,117.3,39.56s90-13.18,117.3-39.56c27.28-26.36,45.84-62.24,55.66-107.64,9.8-45.38,14.72-101.5,14.72-168.36s-4.92-121.74-14.72-166.52Z"/><path class="b" d="M1005.53,153.64c11.04-47.22,31.58-84.64,61.64-112.24,30.04-27.6,72.68-41.4,127.88-41.4s97.06,13.8,127.42,41.4c30.36,27.6,51.06,65.18,62.1,112.7,11.04,47.54,16.56,105.65,16.56,174.34s-5.52,128.8-16.56,176.64c-11.04,47.84-31.74,85.72-62.1,113.62-30.36,27.92-72.84,41.86-127.42,41.86s-97.84-13.94-127.88-41.86c-30.06-27.9-50.6-65.78-61.64-113.62-11.04-47.84-16.56-106.72-16.56-176.64s5.52-127.56,16.56-174.8Zm362.48,8.28c-9.82-44.76-28.38-80.18-55.66-106.26-27.3-26.06-66.4-39.1-117.3-39.1s-90.01,13.04-117.3,39.1c-27.3,26.08-45.86,61.5-55.66,106.26-9.82,44.78-14.72,100.28-14.72,166.52s4.9,122.98,14.72,168.36c9.8,45.4,28.36,81.28,55.66,107.64,27.28,26.38,66.38,39.56,117.3,39.56s90-13.18,117.3-39.56c27.28-26.36,45.84-62.24,55.66-107.64,9.8-45.38,14.72-101.5,14.72-168.36s-4.92-121.74-14.72-166.52Z"/><path class="b" d="M1572.7,603.51c28.52,27.6,67.62,41.4,117.3,41.4,68.68,0,121.28-24.98,157.78-74.98,36.48-49.98,54.74-130.48,54.74-241.5,0-21.46-.32-37.72-.92-48.76-7.98,47.84-31.74,86.02-71.3,114.54-39.56,28.52-86.94,42.78-142.14,42.78-68.08,0-120.68-19.92-157.78-59.8-37.12-39.86-55.66-94.76-55.66-164.68,0-38.02,7.04-72.98,21.16-104.88,14.1-31.88,36.8-57.8,68.08-77.74,31.28-19.92,71.14-29.9,119.6-29.9,91.38,0,153.64,28.68,186.76,86.02,33.12,57.36,49.68,134.78,49.68,232.3,0,109.79-17.94,194.43-53.82,253.92-35.88,59.5-94.62,89.24-176.18,89.24-55.2,0-98.75-15.64-130.64-46.92-31.9-31.28-51.22-73.9-57.96-127.88h18.4c6.74,50.3,24.38,89.24,52.9,116.84Zm214.36-204.24c31.58-14.1,57.64-35.26,78.2-63.48,20.54-28.2,30.82-62.86,30.82-103.96,0-36.8-7.36-71.6-22.08-104.42-14.72-32.8-38.04-59.48-69.92-80.04-31.9-20.54-72.08-30.82-120.52-30.82-57.66,0-103.82,17.48-138.46,52.44-34.66,34.96-51.98,82.8-51.98,143.52,0,67.48,17.32,118.99,51.98,154.56,34.64,35.58,82.34,53.36,143.06,53.36,34.34,0,67.3-7.04,98.9-21.16Z"/></svg>